<svg width="132" height="50" viewBox="0 0 132 50" fill="none" xmlns="http://www.w3.org/2000/svg">
<path d="M20.3859 16.4237V21.2393H23.7811V23.1564H20.3859V28.9076C20.3859 30.1401 21.0468 30.8247 22.1633 30.8247H23.7811V32.7418H21.981C19.6568 32.7418 18.1757 31.3268 18.1757 28.9761V23.1564H15.8286V21.2393H18.1757V16.4237H20.3859Z" fill="#222222"/>
<path d="M35.4706 28.9989C35.0605 31.3725 32.9869 32.9244 30.1613 32.9244C26.6066 32.9244 24.3963 30.1173 24.3963 26.9221C24.3963 23.7041 26.4015 21.0567 29.9334 21.0567C33.4882 21.0567 35.3794 23.59 35.3794 26.5113C35.3794 26.808 35.3567 27.1731 35.3339 27.3786H26.561C26.7434 29.5467 28.1561 31.0302 30.1613 31.0302C31.8475 31.0302 32.9412 30.2998 33.2603 28.9989H35.4706ZM26.6294 25.7582H33.1464C33.0096 24.0008 31.8248 22.8369 29.9334 22.8369C28.1333 22.8369 26.9712 23.8411 26.6294 25.7582Z" fill="#222222"/>
<path d="M46.636 25.3245V32.7419H44.4257V30.8704C43.8788 32.1028 42.4205 32.9244 40.6887 32.9244C38.3417 32.9244 36.7923 31.5095 36.7923 29.4554C36.7923 27.2416 38.5468 25.8723 41.2584 25.8723H43.651C44.175 25.8723 44.4257 25.5984 44.4257 25.1876C44.4257 23.7954 43.4231 22.8369 41.6458 22.8369C40.0508 22.8369 38.8886 23.8411 38.8202 25.005H36.7694C36.9518 22.7456 39.0025 21.0567 41.7141 21.0567C44.6764 21.0567 46.636 22.7684 46.636 25.3245ZM44.4257 27.698V27.4242H41.4634C39.9596 27.4242 38.9797 28.2001 38.9797 29.4097C38.9797 30.4595 39.8456 31.1671 41.1217 31.1671C43.218 31.1671 44.4257 29.8206 44.4257 27.698Z" fill="#222222"/>
<path d="M48.1855 26.9906C48.1855 23.8182 50.259 21.0567 53.8821 21.0567C56.5709 21.0567 58.8952 22.6543 59.2141 25.2561H57.0038C56.7988 23.9552 55.4771 22.9966 53.9277 22.9966C51.6263 22.9966 50.4881 24.7768 50.4881 26.9906C50.4881 29.2044 51.6501 30.9846 53.9277 30.9846C55.5 30.9846 56.6621 30.1629 57.0266 28.862H59.2141C58.8495 31.2812 56.7988 32.9244 53.8821 32.9244C50.259 32.9244 48.1855 30.1629 48.1855 26.9906Z" fill="#222222"/>
<path d="M60.6258 16.4237H62.8361V23.2705C63.4525 21.8326 64.8196 21.0567 66.5286 21.0567C69.1263 21.0567 70.8125 22.9281 70.8125 25.6668V32.7418H68.6022V26.1005C68.6022 24.2747 67.5313 23.0422 65.9135 23.0422C64.1133 23.0422 62.8372 24.5029 62.8372 26.5112V32.7418H60.6269L60.6258 16.4237Z" fill="#222222"/>
<path d="M86.4667 25.3245V32.7419H84.2565V30.8704C83.7096 32.1028 82.2513 32.9244 80.5195 32.9244C78.1725 32.9244 76.623 31.5095 76.623 29.4554C76.623 27.2416 78.3776 25.8723 81.0891 25.8723H83.4818C84.0059 25.8723 84.2565 25.5984 84.2565 25.1876C84.2565 23.7954 83.2539 22.8369 81.4765 22.8369C79.8815 22.8369 78.7194 23.8411 78.651 25.005H76.6002C76.7825 22.7456 78.8333 21.0567 81.5449 21.0567C84.506 21.0567 86.4667 22.7684 86.4667 25.3245ZM84.2565 27.698V27.4242H81.2943C79.7903 27.4242 78.8105 28.2001 78.8105 29.4097C78.8105 30.4595 79.6763 31.1671 80.9524 31.1671C83.0488 31.1671 84.2553 29.8206 84.2553 27.698H84.2565Z" fill="#222222"/>
<path d="M90.6584 31.0302V32.7418H88.4482V16.4237H90.6584V22.9281C91.3193 21.8098 92.7092 21.0567 94.2814 21.0567C97.7905 21.0567 99.7729 23.5672 99.7729 26.9906C99.7729 30.4139 97.7906 32.9244 94.2587 32.9244C92.7331 32.9244 91.3193 32.1712 90.6584 31.0302ZM97.5399 26.9906C97.5399 24.5942 96.1271 22.9966 94.008 22.9966C91.8661 22.9966 90.4761 24.5942 90.4761 26.9906C90.4761 29.3869 91.8661 30.9845 94.008 30.9845C96.1271 30.9845 97.5399 29.3869 97.5399 26.9906Z" fill="#222222"/>
<path d="M101.278 16.4237H103.488V32.7418H101.278V16.4237Z" fill="#222222"/>
<path d="M116.133 28.9989C115.722 31.3725 113.649 32.9244 110.824 32.9244C107.27 32.9244 105.059 30.1173 105.059 26.9221C105.059 23.7041 107.065 21.0567 110.597 21.0567C114.15 21.0567 116.041 23.59 116.041 26.5113C116.041 26.808 116.019 27.1731 115.996 27.3786H107.223C107.405 29.5467 108.818 31.0302 110.823 31.0302C112.508 31.0302 113.602 30.2998 113.921 28.9989H116.133ZM107.292 25.7582H113.811C113.675 24.0008 112.489 22.8369 110.599 22.8369C108.798 22.8369 107.634 23.8411 107.292 25.7582Z" fill="#222222"/>
<path d="M74.9129 22.523V25.0107H72.4747V22.523H74.9129ZM74.9129 30.2827V32.7418H72.4747V30.277L74.9129 30.2827Z" fill="#222222"/>
</svg>
